# xmcd
#
# Track frame offsets:
#  150
#  13863
#  33155
#  76190
#  82100
#  92408
#  103265
#  130355
#  142810
#  155695
#  159170
#  169563
#  179800
#
# Disc length: 2699 seconds
#
# Revision: 0
# Processed by: cddbd v1.5.2PL0 Copyright (c) Steve Scherf et al.
# Submitted via: Collectorz.com Music Collector 6.9
#
DISCID=9c0a890d
DTITLE=Div. Kunstnere - Børne Hits 9
DYEAR=1900
DGENRE=
TTITLE0=Krumme - Krummes Sang
TTITLE1=Shu-bi-dua - Askepot
TTITLE2=Bubber - Hyrdinden Og Skorstensfejeren
TTITLE3=Cæsar - Jeg Ved En Lærkerede
TTITLE4=Trolderik - Falcksangen
TTITLE5=Poul Kjøller - Vandsangen
TTITLE6=Anna and Lotte - Kirsten Parfume Flaske
TTITLE7=Tom and Jess - Fy, Fy, Skamme, Skamme
TTITLE8=Postmand Per - Allands Sang Om Landmandsliv
TTITLE9=Cæsar - Lille Peter Edderkop
TTITLE10=Kaj and Andrea - Ugesangen
TTITLE11=Vesterbro Ungdomsgård - Gude-Snak
TTITLE12=Skærmtrolden Hugo - Historien Om Bumse-Viggo
EXTD=
EXTT0=
EXTT1=
EXTT2=
EXTT3=
EXTT4=
EXTT5=
EXTT6=
EXTT7=
EXTT8=
EXTT9=
EXTT10=
EXTT11=
EXTT12=
PLAYORDER=
